<svg xmlns="http://www.w3.org/2000/svg" viewBox="0 0 28 28" fill="none">
  <rect width="28" height="28" rx="6" fill="#5865F2"/>
  <path d="M19.5 9.5c-1.2-.5-2.4-.9-3.7-1.1-.2.3-.3.6-.5 1-1.3-.2-2.6-.2-3.8 0-.2-.4-.3-.7-.5-1-1.3.2-2.5.6-3.7 1.1C5.2 13.1 4.7 16.6 5 20c1.4 1 2.8 1.6 4.2 2 .3-.5.6-1 .9-1.5-.5-.2-1-.4-1.4-.7l.4-.3c2.8 1.3 6 1.3 8.8 0l.4.3c-.5.3-1 .5-1.4.7.3.5.6 1 .9 1.5 1.4-.4 2.8-1 4.2-2 .4-3.9-.6-7.3-2.5-10.5zM11.3 17.5c-.9 0-1.7-.8-1.7-1.8s.7-1.8 1.7-1.8 1.7.8 1.7 1.8-.8 1.8-1.7 1.8zm5.4 0c-.9 0-1.7-.8-1.7-1.8s.7-1.8 1.7-1.8 1.7.8 1.7 1.8-.7 1.8-1.7 1.8z" fill="#fff"/>
</svg>
