<svg xmlns="http://www.w3.org/2000/svg" viewBox="0 0 28 28" fill="none">
  <rect width="28" height="28" rx="6" fill="#181717"/>
  <path d="M14 5C9 5 5 9 5 14c0 4 2.6 7.4 6.2 8.6.5.1.6-.2.6-.4v-1.5c-2.5.5-3-1.2-3-1.2-.4-1-1-1.3-1-1.3-.8-.6.1-.6.1-.6.9.1 1.4.9 1.4.9.8 1.4 2.1 1 2.6.8.1-.6.3-1 .6-1.2-2-.2-4.1-1-4.1-4.5 0-1 .4-1.8 1-2.4-.1-.2-.4-1.2.1-2.4 0 0 .8-.3 2.5 1a8.7 8.7 0 014.6 0c1.7-1.3 2.5-1 2.5-1 .5 1.2.2 2.2.1 2.4.6.6 1 1.4 1 2.4 0 3.5-2.1 4.3-4.1 4.5.3.3.6.8.6 1.7v2.5c0 .3.2.5.6.4C20.4 21.4 23 18 23 14c0-5-4-9-9-9z" fill="#fff"/>
</svg>
