<svg xmlns="http://www.w3.org/2000/svg" viewBox="0 0 28 28" fill="none">
  <rect width="28" height="28" rx="6" fill="#fff"/>
  <path d="M22.1 14.2c0-.6-.1-1.2-.2-1.8H14v3.4h4.5c-.2 1.1-.8 2-1.7 2.6v2.1h2.8c1.6-1.5 2.5-3.7 2.5-6.3z" fill="#4285F4"/>
  <path d="M14 22.5c2.3 0 4.3-.8 5.7-2.1l-2.8-2.1c-.8.5-1.7.8-2.9.8-2.2 0-4.1-1.5-4.8-3.5H6.3v2.2c1.4 2.8 4.3 4.7 7.7 4.7z" fill="#34A853"/>
  <path d="M9.2 15.6c-.2-.5-.3-1.1-.3-1.6s.1-1.1.3-1.6V10.2H6.3C5.8 11.2 5.5 12.3 5.5 13.5s.3 2.3.8 3.3l2.9-1.2z" fill="#FBBC05"/>
  <path d="M14 8.9c1.2 0 2.4.4 3.3 1.3l2.5-2.5C18.3 6.3 16.3 5.5 14 5.5c-3.4 0-6.3 1.9-7.7 4.7l2.9 2.2c.7-2 2.6-3.5 4.8-3.5z" fill="#EA4335"/>
</svg>
