<svg xmlns="http://www.w3.org/2000/svg" viewBox="0 0 28 28" fill="none">
  <rect width="28" height="28" rx="6" fill="#412991"/>
  <path d="M14 4.5c-1.8 0-3.4.8-4.5 2.1-.9-.4-1.9-.5-2.9-.2-1.7.5-3 1.9-3.3 3.7-.2 1-.1 2 .4 2.9C2.4 14.1 1.9 15.7 2.2 17.3c.5 1.7 1.9 3 3.7 3.3 1 .2 2 .1 2.9-.4C9.9 21.5 11.5 22.3 13.2 22.3h.5c1.8 0 3.4-.8 4.5-2.1.9.4 1.9.5 2.9.2 1.7-.5 3-1.9 3.3-3.7.2-1 .1-2-.4-2.9 1.3-1.1 1.8-2.7 1.5-4.3-.5-1.7-1.9-3-3.7-3.3-1-.2-2-.1-2.9.4C17.8 5.3 16.2 4.5 14.5 4.5H14zm-.7 2l.7-.1c1 0 1.9.4 2.6 1.1l-4.8 2.8-.1-.1V7c0-.1 0-.1.1-.2.4-.2.9-.3 1.5-.3zM9.7 7.8v5.5L6.3 11.5l-.1-.1c-.3-.6-.4-1.2-.3-1.8.2-1 .9-1.8 1.8-2.1.7-.2 1.4-.1 2 .3zm9.7 1.3c.3.6.4 1.2.3 1.8-.2 1-.9 1.8-1.8 2.1l-.1.1-3.4-2 3.4-2h.1c.6-.3 1.2-.3 1.5 0zm-5.6 1.6l3.5 2-3.5 2-3.5-2 3.5-2zM7 13.3l3.4 2-3.4 2v-.1c-.5-.7-.8-1.5-.7-2.3 0-.6.3-1.2.7-1.6zm10.6 0c.4.4.7 1 .7 1.6.1.8-.2 1.7-.7 2.3v-3.9zm-1.3.8v5.5c-.5.3-1 .4-1.6.3-1 0-1.9-.4-2.6-1.1l4.1-2.4.1-2.3zm-7.1 3.4l.1.1c.5.2 1.1.2 1.6 0l.2-.1 3.2 1.8-4.7 2.7v-.1c-.5-.7-.8-1.5-.7-2.3.1-.8.3-1.5.3-2.1zm11 .3c-.2 1-.9 1.8-1.8 2.1-.7.2-1.4.1-2-.3l.1-.1V14l3.4 2 .1.1c.3.5.4 1.1.2 1.7z" fill="#fff"/>
</svg>
