<svg xmlns="http://www.w3.org/2000/svg" viewBox="0 0 28 28" fill="none">
  <rect width="28" height="28" rx="6" fill="#4A154B"/>
  <path d="M9.5 16a1.5 1.5 0 11-3 0 1.5 1.5 0 013 0zm1 0a1.5 1.5 0 013 0v4a1.5 1.5 0 01-3 0v-4z" fill="#E01E5A"/>
  <path d="M12 9.5a1.5 1.5 0 110-3 1.5 1.5 0 010 3zm0 1a1.5 1.5 0 010 3H8a1.5 1.5 0 010-3h4z" fill="#36C5F0"/>
  <path d="M18.5 12a1.5 1.5 0 113 0 1.5 1.5 0 01-3 0zm-1 0a1.5 1.5 0 01-3 0V8a1.5 1.5 0 013 0v4z" fill="#2EB67D"/>
  <path d="M16 18.5a1.5 1.5 0 110 3 1.5 1.5 0 010-3zm0-1a1.5 1.5 0 010-3h4a1.5 1.5 0 010 3h-4z" fill="#ECB22E"/>
</svg>
