<svg xmlns="http://www.w3.org/2000/svg" viewBox="0 0 28 28" fill="none">
  <rect width="28" height="28" rx="6" fill="#25D366"/>
  <path d="M14 5C9 5 5 9 5 14c0 1.6.4 3.1 1.2 4.4L5 23l4.7-1.2c1.3.7 2.7 1.2 4.3 1.2 5 0 9-4 9-9s-4-9-9-9zm0 16.5c-1.4 0-2.8-.4-4-1.1l-.3-.2-3 .8.8-2.9-.2-.3c-.8-1.2-1.2-2.6-1.2-4.1 0-4.1 3.4-7.5 7.5-7.5S21.5 9.6 21.5 14 18.1 21.5 14 21.5z" fill="#fff"/>
  <path d="M18.2 16c-.3-.2-1.8-.9-2.1-1-.3-.1-.5-.2-.7.2-.2.3-.8 1-.9 1.2-.2.2-.3.2-.6.1-.3-.2-1.3-.5-2.5-1.5-.9-.8-1.5-1.8-1.7-2.1-.2-.3 0-.5.1-.6.1-.1.3-.3.4-.5.2-.2.2-.3.3-.5.1-.2 0-.4 0-.5 0-.2-.7-1.7-1-2.3-.2-.6-.5-.5-.7-.5h-.6c-.2 0-.5.1-.8.4-.3.3-1 1-1 2.4s1.1 2.8 1.2 3c.1.2 2.1 3.2 5.1 4.5.7.3 1.3.5 1.7.6.7.2 1.4.2 1.9.1.6-.1 1.8-.7 2-1.4.2-.7.2-1.3.2-1.4 0-.2-.2-.3-.5-.4z" fill="#fff"/>
</svg>
